<svg version="1.2" xmlns="http://www.w3.org/2000/svg" viewBox="0 0 300 181" width="500" height="302">
	<title>AnglersQuestBonefish-svg</title>
	<style>
		.s0 { fill: #000000 } 
	</style>
	<g id="Layer">
		<path id="Layer" fill-rule="evenodd" class="s0" d="m159.5 2c1.2 1.9-0.7 9.1-3 11.8c-2 2.2-2.7 2.5-4.2 1.6c-2.2-1.4-2-8.6 0.3-12.1c1.5-2.4 5.8-3.1 6.9-1.3zm-7 8.4c-0.7 3.3-0.5 3.8 1.1 3.4c1.8-0.3 5.8-9.1 4.6-10.2c-2.2-2.3-4.6 0.6-5.7 6.8z" />
		<path id="Layer" fill-rule="evenodd" class="s0" d="m143.8 9c3.8 2.3 4.2 5.5 1.1 9.4c-2 2.5-2 2.8-0.5 4.5c3.6 3.9 0.4 10.1-3.4 6.6c-1.1-1-4.4-2.3-7.5-3c-6.8-1.6-7.9-0.8-8.9 6.1c-0.7 5.6-2 7.4-5.2 7.4c-1.9 0-2.4-0.6-2.5-2.8c-0.1-1.5-0.1-3.3 0-4c0.1-0.7-2.2 0.2-5.1 2.1c-5.4 3.4-7.6 3.7-15 2.2c-3-0.6-5.3-0.1-11.7 2.5c-4.4 1.7-8.4 2.9-8.9 2.6c-0.6-0.3-3.7 1.2-6.9 3.4c-8.4 5.6-15.4 5.7-16.8 0.2q-0.8-2.7-1.2-1.2c-0.3 0.8-1.2 3-2 4.7c-1.8 4-5 4.4-9.5 1.2l-2.9-2.1l0.6 3.5c1.3 6.8-3.7 10.7-7.5 6c-2.4-3-3.9-2.3-2.2 1c2.2 4.5 2.3 6.3 0.3 8.1c-2.1 1.9-4.5 1.3-7.1-1.9c-1.2-1.4-1.5-1.4-3.1 0.1c-1.4 1.2-1.9 3.1-1.9 6.7c0 5.4-1.9 8.7-5.1 8.7c-2.8 0-4.1-3.5-3.5-9.3c2-20.7 3-24.8 6.7-26.7c1.7-1 2.5-0.6 5.4 2.4c2.1 2.2 3.6 3.2 4.1 2.5c0.3-0.6 1.5-0.9 2.5-0.6c1.7 0.5 1.9-0.1 1.9-4.6c0-6 1.7-10 4.4-10.5c1.1-0.3 3.4 1.2 6 3.7l4.2 4.1l-0.4-6.8c-0.3-5.5-0.1-7.2 1.5-9.1c1.7-2.1 2.2-2.2 4-1c1.6 1 2.3 2.8 2.9 7.3c0.7 5.4 0.8 5.7 1.4 3c1.7-7.7 9.4-16 13.9-14.9c4.7 1.1 5.9 4.4 3.7 9.6c-0.5 1.1-0.1 1.8 1.1 2.3c1 0.3 2.4 0.9 3.1 1.2c0.9 0.4 1.2-1.4 1.1-8.1c-0.1-8.7 0.5-10.7 3.7-11.1c0.9-0.1 1.3 0 1 0.3c-0.3 0.3 0.1 1.2 0.9 2c1 0.9 1.5 3.5 1.5 7.5c0 5.7 0.1 6 2.3 5.5c1.2-0.3 4.5-0.9 7.3-1.3l5.2-0.6l1.2-5.8c0.7-3.2 0.9-6.4 0.5-7.1c-0.5-0.7-0.4-1 0.2-0.6c0.6 0.4 1.3 0 1.6-0.7c0.6-1.5 6.5-3.6 10-3.6c2.5 0 6.1 3.8 4.9 5.3c-0.8 0.9-0.4 1.2 1.4 1.3c1.3 0.1 2.4-0.2 2.4-0.7c0-1.6 5.5-5.9 7.5-5.9c1.1 0 4-0.7 6.5-1.4c6-2 7-1.9 10.8 0.4zm-10.3 1.5c-2.2 0.8-4.9 1.5-6 1.5c-4 0.1-8.6 6.1-5.5 7.2c0.5 0.2 0.1 2.9-1 6.6c-2.2 6.9-2.6 13.2-1 13.2c1.3 0 3-4.3 3-7.5c0-1.3 0.9-4.9 2.1-8c2.2-5.8 4.3-7.6 10.7-9c5.1-1.1 3.8 1.1-1.7 3c-5.1 1.7-7.7 3.7-6.7 5.3c0.3 0.5 3 1.3 6 1.6c3 0.4 6.6 1.6 8 2.7c1.6 1.3 2.7 1.6 3.1 0.9c0.9-1.5-2.2-4.8-6.4-6.9l-3.4-1.8l3.7-0.6c6.6-1.1 8.8-5.1 4.4-8.1c-2.7-1.9-4.1-1.9-9.3-0.1zm-29.5 2.8c-2.1 1-2.7 2.5-4 8.8l-1.4 7.7l-5.8 0.6c-3.2 0.3-7.2 1.3-8.8 2.1c-4.2 2.2-4.6 2-4.2-3.1c0.5-5.9-0.7-13.6-2-13.2c-1.2 0.4-1.8 24.8-0.6 24.8c0.4 0 3.3-1.2 6.5-2.6c7.8-3.4 14.7-4.6 16-2.6c1.3 2.1 6.8 0.9 12.6-2.8c7.9-5 5.1-8.3-3.4-3.9c-4.9 2.5-6.2 2.2-4.6-1.1c0.9-1.9 3-3.1 8.5-4.8c11.5-3.7 8.7-5.3-4.5-2.6c-2.6 0.5-3.3 0.3-3.3-0.9c0-2 1.8-3.3 5.8-4.2c3.5-0.7 4.1-1.9 1.6-2.9c-2.5-0.9-5.7-0.7-8.4 0.7zm-48.5 19c-3.7 7.7-3.1 13.2 1.6 15.7c1.6 0.9 3.1 0.6 7.2-1.4c2.9-1.3 6.5-3.5 8.1-4.8c2.6-2.2 2.7-2.6 1.5-4.6c-1.9-3-5.2-3.7-9.6-2.1c-4.5 1.7-5.5 3.9-1.9 3.9c3.2 0 3.5 2.5 0.5 4c-3.3 1.8-6.9 0.4-6.9-2.6c0-2.7 4.3-11.8 6.1-13c0.7-0.4 1.9 0.3 2.8 1.5c1.3 1.7 1.9 1.9 2.9 0.9c1.7-1.7 1.5-6.5-0.4-7.2c-4.3-1.7-8.1 1.4-11.9 9.7zm63.3-9.2c-0.2 0-1.2 0.4-2.3 0.9c-1.9 0.8-1.9 0.9 0.3 0.9c1.2 0.1 2.2-0.4 2.2-0.9c0-0.6-0.1-1-0.2-0.9zm-74.4 4.4c-0.4 0.8-0.4 5.6-0.2 10.5c0.2 5 0.1 9-0.3 9c-0.4 0-1.5-1.2-2.4-2.7c-2.3-3.4-7.6-8.3-9.1-8.3c-1.9 0-2.4 2.6-2.4 11.1c0 8.3 1.1 11.9 3.5 11.9c2.1 0 2.7-3.4 1.6-9.7c-0.6-3.1-1.1-5.9-1.1-6.2c0-0.3 1.7 1.1 3.8 3.1c5.3 5.1 7.7 6.2 9.3 4.2c1.6-2 2.3-13.2 1.2-19.3c-0.9-4.6-2.8-6.5-3.9-3.6zm16.3 5.4l-1.6 2.8l3.3-1.6c2.5-1.2 3.1-1.9 2.4-2.9c-1.5-1.8-2.2-1.5-4.1 1.7zm-50.3 30.4c-1.7 14.2-1.4 16.7 2 15.4c1.2-0.5 1.6-2.1 1.6-6.2c0-4.6 0.4-6 2.9-8.7l2.8-3.2l3.1 3.5c2.4 2.6 3.3 3.1 4.3 2.2c0.9-0.9 0.7-2.1-0.9-5.4c-1.9-3.8-2-4.5-0.7-5.9c1.5-1.7 2-4 0.8-4c-0.3 0-1.4 0.7-2.3 1.5c-1.6 1.4-1.9 1.2-4.5-2.5c-5.3-7.6-6.7-5.5-9.1 13.3z" />
		<path id="Layer" class="s0" d="m16.8 56.2c0.7 0.9 0.5 2-0.9 3.7l-1.9 2.3v-3.6c0-3.7 1-4.5 2.8-2.4z" />
		<path id="Layer" fill-rule="evenodd" class="s0" d="m176 9.1c1-0.2 5 3 5 3.9c0 1.6-5.3 5.8-6.6 5.3c-0.8-0.3-1.4-0.1-1.4 0.5c0 0.6 1.5 1.5 3.4 2.2c5.6 1.8 7.9 5.8 6.3 10.7c-1.1 3-4.5 5-10 5.8c-6.2 0.9-10.9 0-12.5-2.5c-1.5-2.4 0.1-5.6 3.2-6.4c1.8-0.5 1.6-0.8-1.4-2.8c-1.9-1.3-3.6-3.3-3.8-4.4c-0.5-3.8 6.7-9.6 14.3-11.5c1.7-0.4 3.2-0.7 3.5-0.8zm-7.6 4.3c-10 4.6-10.3 10.1-0.8 12.2c5.5 1.2 9.4 3 9.4 4.3c0 1.5-4.8 2.1-9.2 1.2c-4.4-1-6.8-0.1-6.8 2.5c0 3.6 14.7 2.7 18.6-1.1c4.3-4.3 1.2-8.3-8.4-11.1c-4.2-1.3-5.1-1.8-4.2-2.9c0.6-0.7 2.8-1.6 5-2c4.6-0.8 7.6-2.8 6.6-4.3c-1.1-1.8-4.6-1.4-10.2 1.2zm0 14.7c-1.1 0-1.4 0.3-0.6 0.6c0.7 0.3 1.6 0.2 1.9-0.1c0.4-0.3-0.2-0.6-1.3-0.5z" />
		<path id="Layer" fill-rule="evenodd" class="s0" d="m215.7 20.8l3.2 3.7l1-2.7c1.3-3.4 2.4-4 5.5-2.8c4.5 1.7 4.4 7.6-0.3 13.2c-0.8 1-1 1.8-0.4 1.8c0.5 0 3-2.5 5.4-5.5c2.4-3 4.9-5.7 5.6-6c1.9-0.7 5.6 3.3 4.9 5.2c-0.5 1.2 0 1.4 2.6 0.9c7.1-1.3 15 6.6 10.2 10.1c-2.1 1.5-2.5 1.4 9.1 1.7c7.6 0.1 12.5 2.3 12.5 5.6c0 3.9-4.2 4.8-10.5 2.4c-1.3-0.5-0.7 0.5 1.8 3.1c4.3 4.5 5.4 7.6 3.8 11.1c-1.3 2.9-0.8 2.7 4.7-1.4c3.3-2.4 3.3-2.4 1.4-4.6c-2.2-2.4-1.9-4.1 0.9-5.6c1.5-0.8 2.8-0.3 6.8 2.6c2.9 2 5.6 3.2 6.2 2.8c0.8-0.4 0.9-0.3 0.5 0.4c-0.4 0.7-0.3 1.2 0.2 1.2c1.7 0 9.2 8.2 9.2 10.1c0 3.4-3.6 3.2-9.5-0.6l-5.6-3.6l-5.4 3.1c-3 1.7-5.5 3.6-5.5 4.1c0 0.5-0.6 0.9-1.4 0.9c-0.8 0-1.6 0.4-1.8 0.9c-0.7 2.1-4.2 1.5-5.5-0.9c-1.1-2.1-1-2.7 0.4-3.8c1.4-1 1-1.2-2.8-1.2c-8.5-0.1-18.2-6.8-15.9-11c1.7-3.1 4.7-3.4 8.2-0.7c5.8 4.3 6.4 4 1.3-0.6l-4.9-4.4l-2.9 1.7c-5.9 3.7-19.8 0.4-20.5-4.9c-0.2-1.2 0.4-3.4 1.3-4.8l1.8-2.6l-3.2 2.2c-4.5 3.3-9.5 3.8-11.6 1.4c-1.4-1.7-2.6-1.9-6.4-1.6c-10.1 1.1-14.2-0.3-16.2-5.5c-2.3-5.9 2.3-17 8.1-19.9c4.9-2.5 8.6-1.2 13.7 4.5zm-10-3.8c-4.2 0-10.7 9.6-10.7 15.8c0 5.4 7.8 10 12.7 7.4c1-0.6 3.1-0.8 4.6-0.5c2.6 0.5 3.8-0.9 1.7-2.2c-0.6-0.4-0.4-1.7 0.5-3.5c0.8-1.6 1.5-4.6 1.5-6.8c0-4-2-6.6-6.7-9.1c-1.2-0.6-2.8-1.1-3.6-1.1zm13.5 11.3c-4.5 11.2-3.4 16 3.4 14.3c2.7-0.7 11.3-8.2 14.5-12.7c1.8-2.6 1.7-5.9-0.1-5.9c-0.5 0-2.9 2.6-5.4 5.8c-4.9 6.5-9 9.6-11.2 8.8c-1.1-0.4-0.5-2 2.6-6.8c4.2-6.7 4.7-8.7 2.8-10.6c-2.3-2.3-3.3-1.2-6.6 7.1zm25.8 1.7c-1 0-4.7 3.2-8.4 7c-7.7 8.2-8.4 11-3.3 13.1c3.4 1.5 14 1.9 15.3 0.7c1.5-1.5-1.8-3.5-6.7-4.1c-2.9-0.4-5.4-0.9-5.7-1.1c-1.1-1.1 2.2-3.6 4.7-3.6c4.6 0 12.1 3 12.1 4.8c0 1 2.5 4 5.5 6.8c8.9 8.2 6.6 11.1-3.3 4.2c-3.9-2.7-4.5-2.9-5.9-1.5c-1.4 1.4-1.4 1.7 0.4 3.6c4.3 4.6 16.4 6.7 18.3 3.2c1.9-3.7 1.1-6.2-4-11.1c-5.8-5.7-5.2-6.8 2.6-5c6.4 1.6 8.7 0.5 5.3-2.6c-1.7-1.5-3.7-1.9-10.3-2c-8.9-0.1-18.1-2.9-18.1-5.4c0-1.6 4.1-1.8 8.4-0.5c3.4 1.1 2.3-1.4-1.9-4.3c-1.8-1.2-4.1-2.2-5-2.2zm3.4 7c-0.2 0-0.4 0.4-0.4 1c0 0.5 0.5 1 1.1 1c0.5 0 0.7-0.5 0.4-1c-0.3-0.6-0.8-1-1.1-1zm1.6 9c-0.5 0-0.7 0.7-0.4 1.5c0.4 0.8 0.8 1.5 1 1.5c0.2 0 0.4-0.7 0.4-1.5c0-0.8-0.4-1.5-1-1.5zm26.7 7.4c-0.4 0.9 0.5 2.1 1.9 3.1c3.1 2 2.6 2.7-6.2 9c-3.5 2.6-6.4 5-6.4 5.5c0 2.3 2.4 1.8 6.3-1.2c2.3-1.9 6-4.6 8.3-6l4-2.6l5.7 3.9c5.6 3.8 8.7 4.9 8.7 2.9c0-0.9-2.7-3.2-15.3-12.5c-5.2-3.9-6.2-4.2-7-2.1z" />
		<path id="Layer" fill-rule="evenodd" class="s0" d="m209.1 22c2.2 1.2 2.5 4.6 0.7 8.5c-0.8 1.8-1.9 2.5-4 2.5c-2.5 0-2.8 0.3-2.3 2c0.8 2.4-1.6 2.8-3.5 0.5c-1.5-1.9 0.2-8.2 3.3-12.1c2.1-2.7 2.9-2.9 5.8-1.4zm-6.1 5.9c-2.3 4.5-2.1 4.6 2.7 2.9c2.7-1 3.3-1.6 3-3.8c-0.6-4.1-3.3-3.6-5.7 0.9z" />
		<path id="Layer" fill-rule="evenodd" class="s0" d="m152.3 51.8c-0.6 3.3-0.5 3.6 1 2.4c2.1-1.8 3.7-0.7 3.7 2.6c0 2.8 3.3 5.9 5.7 5.4c1.5-0.3 3.6 3.5 2.7 4.9c-0.4 0.8 0.1 0.9 1.5 0.4c1.7-0.5 2.4-0.2 2.7 1.2c0.3 1 1.5 2.3 2.6 2.8c2.8 1.3 7.5 9.5 5.5 9.5c-2.2 0-4 2.7-3.2 4.7c0.6 1.6 1 1.4 3.6-1.5c2.9-3.2 3-3.5 1.3-5.3c-2-2.2-0.3-2.6 1.9-0.4c1.6 1.5 15.3 6.4 19.9 7.1c2.1 0.3 3.3-0.4 5.5-3c3.3-3.9 12.6-10.8 16.8-12.4c5-1.9 10.2-2.5 12.2-1.3c1.6 0.9 1.4 1-1.3 1.1c-7.7 0-19.6 6.5-26.4 14.3c-4.9 5.7-2.7 5.7 2.8 0.1c5.7-5.8 15-11 21.3-12c2.4-0.4 5-1.1 5.7-1.7c0.9-0.7 1.1-0.6 0.6 0.6c-0.6 1.6-5.4 3.7-8.6 3.7c-1.1 0-1.6 0.4-1.3 1c0.3 0.5 1.8 0.7 3.3 0.4c1.9-0.4 3.2 0 4.1 0.9c1 1.3 0.8 1.9-1.5 3.3c-1.4 1-3.5 1.9-4.6 1.9c-1.1 0.1-2.3 0.6-2.6 1.1c-0.4 0.5-1.4 1-2.2 1.2c-0.8 0.2-3.4 1.5-5.7 2.8c-4.6 2.6-5.9 4.9-2 3.5c1.2-0.4 4.7-0.9 7.7-1c3-0.2 5.8-0.5 6.2-0.7c0.5-0.3 0.8-0.1 0.8 0.5c0 0.6 1.6 1.3 3.5 1.7q6.5 1.2 4.2 4.5c-1.9 2.5-15.1 4.1-20.7 2.5c-1.4-0.4 0.9 1.1 5 3.3c4.1 2.3 7.8 4.1 8.3 4.1c0.5 0 1.7 0.5 2.8 1c1.5 0.9 1.7 1.4 0.7 2.9c-1 1.7-1.5 1.8-7.2 0.5c-3.4-0.8-7.2-1.9-8.6-2.5l-2.5-1.1l2 2.2c1.1 1.2 4.1 3.3 6.8 4.6c2.6 1.3 4.7 3.1 4.7 3.8c0 1.9-3.4 2.9-6.2 2c-3.1-0.9-15-9.2-16.6-11.5c-1-1.5-1.7-1.6-3.7-0.7c-2.8 1.2-5 0-6-3.3c-0.7-2.1 1.9-5.4 3.4-4.4c0.5 0.3 1.2 0.1 1.5-0.4c0.4-0.5 0.2-1.2-0.4-1.6c-0.6-0.4-0.8-1.1-0.5-1.6c0.4-0.5 0.1-0.9-0.4-0.9c-0.6 0-1.1-1-1.1-2.3c0-1.7-0.2-1.9-0.9-0.7c-0.6 0.8-0.7 1.9-0.3 2.5c1 1.6 1.1 3.5 0.1 3.5c-0.5 0-0.9-0.7-0.9-1.5c0-0.8-0.4-1.5-0.8-1.5c-1.7 0-2.1 1.3-0.9 3.1c0.9 1.6 0.9 2.1-0.1 2.8c-1.1 0.7-1.1 1.4 0.1 4.3c1.6 3.9 0.7 7.5-1.1 4.2c-0.5-1.1-1.2-3.1-1.6-4.7c-0.3-1.5-1.1-2.7-1.6-2.7c-1.5 0-1.2 2.2 0.9 6.4c1.5 2.9 1.6 3.6 0.5 3.2c-0.8-0.3-1.4 0-1.4 0.7c0 2.1-2-1.6-3.1-6.1c-0.6-2.3-1.6-4.2-2.1-4.2c-1.3 0-0.2 4.4 2.2 9.2c1.2 2.3 1.4 3.5 0.7 3.4c-2.5-0.4-3.6-1.8-5.2-6.6c-1.7-5-1.7-5.1 0.7-6.9c2.1-1.8 2.1-2 0.6-2.6c-1-0.4-1.5-1.1-1.2-1.7c0.8-1.2 3.4 1 3.4 2.8c0 0.8 0.7 1.4 1.5 1.4c1.8 0 2-2.6 0.3-3.3c-0.8-0.3-0.6-0.6 0.5-0.6c1.1-0.1 1.7 0.6 1.7 1.9c0 1.1 0.7 2 1.5 2c1.8 0 1.9-0.9 0.5-4.5c-0.8-2.2-1.3-2.5-2.5-1.5c-0.8 0.6-1.9 0.8-2.6 0.4c-1.3-0.8-21.9-1.4-23.2-0.7c-0.4 0.3-0.3 1.1 0.3 1.8c0.6 0.8 1 2.2 0.8 3.1c-0.4 2.4 3 3.1 3.9 0.8c0.4-1 0.2-1.9-0.5-2.2c-1.7-0.5-1.5-2.2 0.3-2.2c1.4 0 2 1.7 1.6 4.7c-0.3 1.9 3.9 1.6 4.6-0.3c0.3-0.9 0-2-0.8-2.4c-0.7-0.5-1-1.3-0.5-1.7c1.1-1.1 3.6 2.6 2.9 4.3c-0.7 1.8 1.1 1.8 2.6 0c0.8-1 0.9-1.6 0.1-2.1c-1.6-1-1.2-2.5 0.5-1.9c1.7 0.7 2.1 5.4 0.5 5.4c-2.5 0 0 7.9 3.9 12.4c1.2 1.4 1.3 2 0.4 2.3c-0.7 0.3-1.3 1.2-1.4 2.1c-0.1 2.2-6.9-11.7-6.9-14c0-1-0.4-1.8-1-1.8c-2.4 0 0.3 9 4.1 13.9c1.9 2.4 1.9 2.4-0.7 3.7c-1.4 0.8-3.3 1.4-4.1 1.4c-0.8 0-1.1 0.5-0.7 1.2c0.4 0.7 0.3 0.8-0.5 0.4c-1.8-1.2-5.3-8.6-7-15c-1.9-7.1-4.3-9-3-2.4c0.9 5.1 3.5 11.1 6.7 15.6c1.3 1.7 1.9 3.2 1.4 3.2c-0.5 0-1.2 0.9-1.5 2.1c-0.5 1.9-0.7 2-3.7 0.4c-1.7-0.9-3.4-2.3-3.7-3c-0.3-0.8-0.8-1.3-1.2-1c-1.3 0.7-4.4-5.7-6.7-13.5c-2.1-7.4-4.4-10.4-4.4-5.8c0 3.8 3 11.9 6.2 16.5c3.2 4.7 2.5 5.7-1.2 1.8c-1.2-1.3-2.6-2.2-3-2c-0.4 0.3-1.9-0.6-3.4-2c-1.4-1.3-2.6-1.9-2.6-1.3c0 2.7-2-1.1-4.4-8.2c-1.3-4.1-3-7.6-3.6-7.8c-1.8-0.6-0.3 5.4 3 11.9l2.9 5.6l-3.6-1.8c-4.7-2.4-6.7-4.4-3.4-3.4c1.5 0.5 2.1 0.4 1.7-0.3c-0.8-1.3-10.5-4.6-11.3-3.9c-1.1 1.2 1 2.7 3.8 2.7c1.7 0 2.9 0.5 2.9 1.3c0 0.7 2 2.7 4.5 4.5c4.9 3.4 5.6 5.1 2.5 5.9c-2.4 0.6-2.5 1-0.5 2.9c0.8 0.9 1.5 2 1.5 2.5c0 1.6-4.9 2.2-6.7 0.8c-1.5-1.2-1.6-1.2-1 0.4c0.3 0.9 0.4 2.4 0.1 3.2c-0.5 1.3-1 1.3-4.2-0.1c-2.1-0.8-3.8-1.4-3.9-1.2c-0.3 0.7-4.1-4.8-4.7-7c-0.7-1.9-2.6-3.2-2.6-1.6c0 1.3 4.4 8.4 5.2 8.4c1.1 0 3.6 5.3 3.1 6.8c-0.3 0.6-0.9 1-1.4 0.6c-0.5-0.3-0.9-0.1-0.9 0.5c0 0.5 2 2.7 4.5 4.9c3.2 2.8 4.1 4.1 3.1 4.5c-2 0.8-5.1-1.7-7-5.8c-0.9-1.9-2.1-3.5-2.6-3.5c-1.7 0 0.4 4.3 4 8.1c2.8 3 3.2 3.8 1.7 3.3c-2.5-0.8-5.1-3.8-6.8-7.6c-1.4-3.4-14.4-10.8-18.8-10.8c-2.9 0-14.5-5.2-15.6-7c-0.3-0.4-1.4-0.6-2.4-0.3c-1 0.3-2.2 0-2.5-0.6c-0.4-0.6-2.6-1.1-4.9-1.1c-2.3 0-5.5-0.7-7-1.5c-1.5-0.8-3.4-1.2-4.2-0.9c-1.9 0.8-11.1-2.3-15.5-5.1c-4.1-2.7-7.1-5.9-9.3-10.3c-1.5-3.1-1.5-3.3 1.6-8c1.8-2.6 3.7-5.7 4.3-6.7c0.6-1.1 3.1-2.6 5.5-3.3c2.4-0.8 7.3-2.7 10.7-4.4c3.5-1.6 7.2-3.1 8.2-3.3c1-0.2 2.9-0.9 4.1-1.5c1.2-0.7 5.2-1.3 8.8-1.4c3.6-0.1 7.2-0.6 8-1.1c3.6-2.2 22.5 0.1 26.2 3.2c2.3 1.9 5.9-2.5 5.9-7.5c0.1-2 0.7-4.8 1.5-6.2c1.3-2.3 1.3-1.9 0.8 4.6c-0.4 4.8-0.2 7.3 0.6 7.8c0.8 0.5 1.1-1.3 1.1-6.3c0-5.2 0.3-6.9 1.3-6.6c0.7 0.3 1.9-1.3 3-3.9c3.2-7.8 7-8.6 6.1-1.2c-0.3 2.4 0 2 1.6-1.9c1.1-2.8 2-5.5 2-6.1c0-0.6 0.9-2.3 2.1-3.8c2.9-3.6 5-2 4.2 3.2zm-1.6-4.5c-0.8-0.8-6.5 17.7-7.3 23.5c-0.7 5.8-0.1 8.4 1.9 7.6c1-0.3 1.7-2.9 2.1-7.7c0.4-4 1.4-10.7 2.2-15c0.9-4.3 1.3-8.1 1.1-8.4zm4.5 6.7c-1.2 0-5.2 15.8-5.2 20.5c0 2.4 0.4 3.5 1.5 3.5c1.1 0 1.5-1.1 1.5-3.8c0-3.7 1.6-15.2 2.6-18.5c0.3-0.9 0.1-1.7-0.4-1.7zm-14.5 2.3c-1-0.9-4.7 12.4-4.7 16.9c0 4.2 0.3 4.8 2.1 4.8c1.8 0 2-0.5 1.6-4.7c-0.3-2.5-0.1-7.3 0.4-10.6c0.6-3.3 0.8-6.1 0.6-6.4zm17.9 4.7c-0.6 0-1.3 4-2.1 11.2c-0.5 4.9-0.4 5.8 0.9 5.8c1.3 0 1.6-1.4 1.6-8.5c0-4.7-0.2-8.5-0.4-8.5zm3 7.2c-0.9 8.1-0.8 9.8 0.9 9.8c1.2 0 1.5-1.5 1.5-7.5c0-8.6-1.4-10-2.4-2.3zm6.3-0.2c-1.3 0-1.1 9.7 0.2 10.5c1.5 1 1.6 0.6 1.1-5.3c-0.2-2.8-0.8-5.2-1.3-5.2zm4.1 7.3c0 2.5 0.4 3.7 1.4 3.7c1.2 0 1.3-0.7 0.6-3.1c-1.3-4.6-2-4.8-2-0.6zm-69 2.4c0 0.5 1 2 2.3 3.5c2.1 2.5 2.5 2.6 8.6 2c6.9-0.8 9.9-3.2 3.9-3.2c-1.8-0.1-5.1-0.7-7.3-1.5c-4.4-1.6-7.5-1.9-7.5-0.8zm-7.4 1.1c-0.3 0.5 0.6 3 1.9 5.7c4.3 8.4 2.9 18-3.7 25.6c-2 2.3-2.9 2.6-7 2.2c-2.7-0.3-4.6-0.9-4.3-1.4c0.3-0.4 1.3-0.5 2.3-0.2c1.6 0.6 1.6 0.6 0-1c-1.8-1.9-3.8-2.2-3.8-0.7c0 0.5-0.7 0.7-1.5 0.4c-0.8-0.4-1.5-0.2-1.5 0.3c0 0.5-0.9 0.9-2 1c-1.4 0.1-2-0.4-2-2c-0.1-2.1-0.1-2.1-1.1-0.3c-0.9 1.5-1.3 1.6-2 0.5c-0.6-1-0.9-1.1-0.9-0.2c0 0.7-0.4 1.3-1 1.3c-0.5 0-1-0.6-1-1.4c0-0.8-0.7-1.6-1.5-2c-0.8-0.3-1.5-0.1-1.5 0.4c0 1.8-2 1-2.1-0.8c0-1-0.3-1.2-0.6-0.5c-0.7 1.8-2.3 1.6-2.3-0.2c0-0.9 0.7-1.8 1.6-2.2c1.3-0.5 1.3-0.7 0.2-1.4c-0.9-0.6-1.6 0.1-2.4 2.4l-1.2 3.2l-1-2.5c-0.6-1.4-1.1-1.9-1.1-1.1c-0.1 1.9-3.1-0.6-3.1-2.6c0-1-0.6-1.2-1.9-0.8c-1.5 0.4-2 0-2.3-1.7c-0.3-2.1-0.5-2-2.1 1.1c-1.4 2.8-1.5 3.7-0.5 4.7c2.5 2.5 17.7 8.4 26.7 10.5l9.1 2.1l3.6-2.1c2-1.2 3.9-1.9 4.3-1.6c1.3 1.3-9.8 6.3-14.4 6.5l-3 0.2l3 0.9c3.5 1.1 12-0.4 17.6-3.2c12.6-6.2 18-26.9 9.8-37.3c-2-2.5-6.2-3.5-7.3-1.8zm137.9-0.7c-5.3 0.1-14.3 4-21 9.3c-2.1 1.7-4.5 3-5.2 2.8c-0.7-0.2-1.3 0.2-1.3 0.8c0 0.5 0.8 1 1.8 1.1c1 0 1.2 0.3 0.5 0.6c-1.7 0.6-1.6 2.3 0.1 2.3c0.7 0 1.6-0.9 1.9-1.9c0.8-3 9.5-8.8 18.2-12c5.8-2.2 7.2-3 5-3zm-108.2 3.4c-2.3 2.5-3.1 5.5-1.4 5.5c1.1 0 6.1-5.8 6.1-7.1c0-1.6-2.5-0.8-4.7 1.6zm5.9-0.2c-2.5 2.6-2.9 4.7-0.9 4.7c1.2 0 5.7-5.1 5.7-6.5c0-1.3-2.9-0.3-4.8 1.8zm5.8-0.1c-2.5 2.7-2.6 4.8-0.1 4.8c1.7 0 6.1-4.7 6.1-6.4c0-1.5-4.1-0.4-6 1.6zm10.2-2.2c-1.1 0-2.7 1.1-3.6 2.5c-2 3.1-2 3.5 0.2 3.5c1 0 2.6-1.4 3.5-3c1.8-2.9 1.8-3-0.1-3zm8.9 0h-2.4c-2.9 0-6.2 3.3-5.4 5.5c1 2.3 2.2 1.8 5.1-2zm4.1 0c-2.1 0-6.6 4.3-5.5 5.3c0.3 0.4 1.5 0.7 2.5 0.7c1.6 0 1.7 0.6 1.2 3.9c-0.6 4 0.8 6.3 2.8 4.3c0.8-0.8 0.6-2.3-0.6-5.3c-1.5-3.8-1.5-4.3-0.1-6.5c1.4-2.2 1.4-2.4-0.3-2.4zm1.9 2.4c-1.6 1.7-1.9 2.6-1.1 3.1c1.3 0.8 6.1-2.3 6.8-4.3c0.7-2.1-3.4-1.3-5.7 1.2zm-74.5-1.4c-6.6 0.1-11 2.1-12.9 5.8l-1.5 3.1l3.9 1.5c2.2 0.9 4.6 1.6 5.4 1.6c0.9 0 2.3 0.4 3.3 0.9c1.7 1 10.2 3.1 12.1 3.1c0.6 0 1.1-0.8 1.1-1.9c0-1.6-0.6-1.8-4.5-1.4c-6 0.7-7.9-0.1-6.3-2.6c0.9-1.6 0.9-2.3-0.3-3.7c-1.2-1.5-1.2-1.7 0.1-1.2c0.8 0.2 1.7 1.5 2.1 2.9c0.6 1.9 0.7 2 0.8 0.4c0.1-1.5 0.4-1.6 1.3-0.7c1 1 1 1.5-0.2 2.2c-0.8 0.5-1.7 0.7-2.1 0.4c-0.4-0.2-1.1 0.1-1.4 0.6c-0.5 0.8 0.9 1 4.2 0.8c4.1-0.3 4.8-0.6 5.1-2.6c0.6-4.4-9.8-6.4-19.8-3.8c-1.5 0.4-1.1 0 1-1c2.6-1.2 5.3-1.5 10.3-1.1c6.6 0.4 6.7 0.4 5.1-1.4c-1.3-1.4-3.1-1.9-6.8-1.9zm80.9 2c-1.4 1.5-1.6 2.3-0.7 3.2c0.8 0.8 1.9 0.4 4.1-1.4c1.6-1.4 2.7-2.9 2.4-3.2c-1.3-1.2-4-0.5-5.8 1.4zm-100 3.5c-3.3 1.9-8.4 3.9-11.2 4.5c-2.9 0.6-5.3 1.4-5.3 1.8c0 0.4-0.3 1.8-0.7 3.2c-0.6 2.3-0.5 2.4 1.2 1c1.7-1.4 1.8-1.3 1.2 0.2c-0.3 1-0.2 2 0.3 2.3c0.6 0.4 1-0.1 1-1c0-0.9 0.5-1.3 1-1c0.6 0.3 1 1.5 1 2.6c0 1 0.4 1.9 1 1.9c0.5 0 0.7-0.7 0.4-1.5c-0.4-1 0-1.5 1.4-1.5c1.1 0 2.3 0.8 2.5 1.7c0.4 1.7 0.5 1.7 0.6 0c0.2-2.8 2.1-1.9 2.2 1c0 2.7 0 2.8 1 0.5c0.9-2.4 2.9-2.2 2.9 0.3c0 0.7 0.7 1.5 1.5 1.9c0.8 0.3 1.5 0.1 1.5-0.4c0-0.6 0.5-1 1.1-1c0.5 0 0.7 0.4 0.4 1c-0.3 0.5-0.1 1 0.4 1c0.6 0 1.1-0.5 1.1-1c0-0.6 0.5-1 1.1-1c0.6 0 0.9 0.7 0.5 1.5c-0.3 0.8-0.1 1.5 0.5 1.5c0.6 0 1.3-0.8 1.5-1.8c0.7-2.5 6.8-2.3 8.7 0.2c1.1 1.5 2.1 1.8 4.6 1.3c3-0.6 3.2-0.5 2.6 1.6c-0.5 1.9-0.5 2 0.5 0.4c0.6-0.9 1.3-2.5 1.5-3.5c0.2-0.9 0.6-2.5 1-3.4c0.8-2.1-1.6-3.2-8.7-4.3c-4.1-0.6-4.7-0.4-6.5 1.9c-1.2 1.4-2.4 2.6-2.7 2.6c-0.9 0 1-3.4 2.8-5.2c1.1-1.2 0.4-1.3-4.8-1c-3.3 0.2-7.6 1-9.3 1.8c-1.8 0.7-3.3 1-3.3 0.6c0-0.4 2.3-3.3 5-6.5c2.8-3.2 5-6.3 5-6.8c0-1.2 0.3-1.3-6.5 2.6zm115.1-3.5c-1.3 0-4.6 3.1-4.6 4.3c0 1.3 2.7 0.7 4-0.8c0.7-0.8 1.7-1.5 2.3-1.5c0.5 0 0.2 0.9-0.8 2c-1.8 1.9-1.7 2 0.2 2c1.1 0 2.8-0.9 3.8-2c1.8-1.9 1.7-2-0.3-2c-1.1 0-2.4-0.5-2.7-1c-0.3-0.6-1.2-1-1.9-1zm-67 2.1c-5.9 0.3-8.6 1-8.6 2.3c0 1.4 5.9 4.5 10.8 5.6c2.9 0.7 3.2 0.6 2.6-0.8c-0.4-1-0.9-2.9-1.2-4.5c-0.4-2.3-0.9-2.7-3.6-2.6zm37.8 4.8c-1-4.6-2.4-4.2-2.4 0.7c0 3.1 1.5 5.3 2.7 4c0.3-0.3 0.2-2.4-0.3-4.7zm11.9-0.1l-1-4.3l-0.8 3.8c-0.7 3.7 0.5 7 2.1 5.4c0.4-0.4 0.3-2.6-0.3-4.9zm26.7-3.7c-1.6 0-5 2.2-5 3.3c0 1.2 1.8 0.6 4.1-1.4c1.7-1.3 1.9-1.9 0.9-1.9zm-65.2 2.7c-0.4-2.2-0.5-2.2-1.7 0.6c-0.8 2-0.8 3.3-0.2 3.9c0.7 0.7 1.2 0.5 1.6-0.6c0.4-0.8 0.5-2.6 0.3-3.9zm6.5 1l-1-3.3l-0.8 2.8c-0.7 2.8 0.7 5.8 2.1 4.4c0.4-0.4 0.2-2.1-0.3-3.9zm7 0l-1-3.3l-0.8 2.8c-0.7 2.8 0.7 5.8 2.1 4.4c0.4-0.4 0.2-2.1-0.3-3.9zm4.5-0.7c-0.2 1.3 0.4 4.1 1.5 6.2c1 2.2 1.6 4.5 1.3 5.3c-0.4 1 0.3 1.4 2.4 1.4c3.2 0 3.9-1.6 1.8-3.9c-1.1-1.1-1-1.3 0.2-0.9c0.8 0.3 1.6 1.7 1.8 3.1c0.4 3.3 3.6 3.7 5.2 0.7c0.6-1.1 0.7-2 0.2-2c-0.6 0-1.2-1-1.5-2.1c-0.5-1.7-1.1-2-2.9-1.6c-4.2 1.1-7.3-0.5-7.5-3.7c-0.3-3.9-2-5.6-2.5-2.5zm26.3-1.5c-1-0.6-2.4 5.2-1.5 6.5c1.2 2 2.4 0.7 2.4-2.5c0-1.9-0.4-3.7-0.9-4zm24.8-0.5c-2.2 0.1-3.9 1-3.9 2c0 1.4 2.6 1 4-0.6c1-1.2 1-1.5-0.1-1.4zm-20.2 1.6c-1.1 1-0.8 6.3 0.3 6.3c0.6 0 1-1.6 1-3.5c0-3.6-0.2-4-1.3-2.8zm21.3 0.3c-1.2 0.8-1.2 1 0.2 1.5c2 0.8 4.1-0.2 3.3-1.6c-0.8-1.1-1.6-1.1-3.5 0.1zm-124.4 2.1c-0.9-0.8-1.9-0.4-3.7 1.6c-1.9 2.1-2 2.5-0.6 2c1-0.4 4-0.7 6.5-0.8c4.2-0.1 4.4-0.2 1.9-0.9c-1.6-0.5-3.4-1.3-4.1-1.9zm107.4 1.5c0 1.4 0.4 2.3 0.9 2c0.5-0.3 0.7-1.5 0.4-2.6c-0.7-2.8-1.3-2.5-1.3 0.6zm4.7-1.9c-1.1 1-0.8 4.3 0.3 4.3c0.6 0 1-1.1 1-2.5c0-2.6-0.2-2.9-1.3-1.8zm5 0c-1.1 1-0.8 4.3 0.3 4.3c0.6 0 1-1.1 1-2.5c0-2.6-0.2-2.9-1.3-1.8zm13.3-0.7c-0.5 0-1 0.4-1 1c0 0.5 0.5 1 1 1c0.6 0 1-0.5 1-1c0-0.6-0.4-1-1-1zm-89.7 8.5l-6.3-7.6v5.3c0 5.4-2.6 12.6-5.7 16c-1.5 1.7-1.1 1.8 9 1.8c9.8 0 10.6-0.2 11.2-2.1c0.4-1.1 0.1-2.8-0.7-3.9c-0.7-1-4.1-5.3-7.5-9.5zm-1.6-6.2c-2.7-1.3-2.4-0.8 2.4 5c2.9 3.6 5.4 6.5 5.5 6.4c0.1-0.1 0.4-2.2 0.5-4.6c0.3-4.2 0.2-4.5-2.5-4.8c-1.6-0.2-4.3-1.1-5.9-2zm83.3-0.3c-0.5 0-1 0.9-1 2c0 1.1 0.5 2 1 2c0.6 0 1-0.9 1-2c0-1.1-0.4-2-1-2zm7 1.9c0 2.5 2.1 6.4 3 5.5c0.7-0.7 0.6-2-0.2-3.7c-1.3-2.6-2.8-3.6-2.8-1.8zm14.1 0.3c-4 0.9-4.3 1.1-2.5 2.1c2.6 1.6 21.9 1.6 23.4 0.1c0.9-0.9-0.1-1.5-4-2.3c-6-1.3-10.8-1.3-16.9 0.1zm-92.4-0.2c-2 0-2.6 2-1.6 4.7c1 2.7 2.2 2.9 3.9 0.8c1-1.2 0.9-1.6-0.3-2.1c-0.9-0.3-1.3-1.2-1-2c0.3-0.8-0.1-1.4-1-1.4zm2.9 0.8c-0.3 0.3-0.1 1.1 0.4 1.8c0.6 0.6 0.9 1.8 0.8 2.5c-0.4 1.8 3 2.3 4.8 0.8c1.2-1 1.2-1.4 0.2-2c-0.7-0.4-0.9-1.1-0.6-1.4c1.2-1.2 2.9 0.6 2.3 2.5c-0.8 2.4 2.4 3.6 4.3 1.6c1.3-1.2 1.3-1.8 0.2-3c-1-1.3-1-1.6 0.4-1.6c1.5 0 2 1.1 1.7 3.8c-0.3 1.8 2.7 2.6 4.4 1.2c1.4-1.1 1.4-1.5 0.1-2.9c-0.8-0.9-1.6-2-1.8-2.5c-0.3-1-16.3-1.8-17.2-0.8zm33.6 0.9c-1 0.4-1 0.8-0.1 1.9c0.6 0.7 0.9 2.1 0.5 2.9c-0.7 1.9 2.1 3.2 3.6 1.7c0.6-0.6 0.7-1.8 0.3-2.9c-0.5-1-0.9-2.2-0.9-2.7c-0.1-1.2-1.7-1.6-3.4-0.9zm47.9 2.9c4.8 5.7 24.6 14.3 26.4 11.4c0.3-0.5-0.3-1-1.5-1c-2.9 0-11.2-3.6-18.9-8.2c-7-4.2-8-4.6-6-2.2zm-3.1 2.1c0 3.6 11 14.1 17.7 16.9c5.4 2.3 7.1 1.4 2.1-1c-6.2-3.1-13.3-9-15.9-13.2c-1.9-3.1-3.9-4.5-3.9-2.7zm-78.1 0.3c-1.7 0-0.9 3.8 1.2 6.1c1.6 1.9 1.9 2 1.5 0.6c-0.3-1.1-0.9-3-1.2-4.3c-0.3-1.3-1-2.4-1.5-2.4zm72.7 0.9c-0.7 1.1 1.3 6.1 2.5 6.1c0.4 0 0.3-1.5-0.3-3.3c-1.3-3.9-1.4-4.1-2.2-2.8zm3.5 0.1c0 0.8 0.4 2.2 0.9 3c0.5 0.8 0.9 1 0.9 0.5c-0.1-1.9-1.8-5.1-1.8-3.5zm-71.1 0.5c0 1.6 3.4 8.5 4.2 8.5c0.9 0 0.6-1.8-1.3-6.8c-0.7-1.9-2.9-3.2-2.9-1.7zm13 0c0 1.3 5.1 13.7 6.6 16c2.7 4.1 2.6 2.3-0.1-3.9c-1.4-3.1-2.5-6.9-2.5-8.5c0-1.7-0.6-3.1-1.6-3.5c-1.9-0.7-2.4-0.8-2.4-0.1zm-21 2.5l-2-2.5l0.6 5.2c0.6 4.7 0.4 5.5-2.3 9c-4.9 6.2-4.9 6.3-0.3 6.3c3 0 4.7-0.6 6.5-2.5c2.9-2.8 3.1-5.4 1-9.8c-0.9-1.8-2.4-4.3-3.5-5.7zm34.6-1.1c-1 1.6 3.3 13.8 6.7 18.7c4.6 6.8 6.3 6.7 2.2-0.1c-1.9-3.2-3.9-8.3-4.6-11.4c-0.6-3.1-1.3-6.2-1.5-6.9c-0.4-1.4-2-1.6-2.8-0.3zm11.4 0.6c0 4.7 7.1 18.8 8.6 17.2c0.2-0.1-1-2.9-2.6-6.1c-1.7-3.2-3-6.7-3-7.7c0-0.9-0.3-2.4-0.6-3.3c-0.8-2-2.4-2.1-2.4-0.1zm-102.4 0.6c-1-0.8-1.6-0.9-2.1-0.1c-0.6 1 2.2 2.7 3.1 1.8c0.2-0.3-0.2-1.1-1-1.7zm14.6-0.1c-1.5 0-1.5 0.2-0.2 1c2 1.3 3.3 1.3 2.5 0c-0.3-0.6-1.4-1-2.3-1zm3.9 2.9c-1.2 0.8-1.2 1.2-0.2 2.5c2.5 3 6.1 1.5 6.1-2.5c0-1.2-4.1-1.1-5.9 0zm-39.8 0.1c-0.4 0 1.1 1.8 3.3 4.1c5.3 5.2 14.7 8.7 22.2 8.1c5.1-0.4 7.5-2.2 2.8-2.2c-3.6 0-15.3-3.8-21.8-7.1c-3.2-1.6-6.1-2.9-6.5-2.9zm84.2 7.1c-0.4 0.5 0.1 1.9 1 2.9c1.9 2.1 11.4 6.4 12.3 5.6c0.3-0.3 0.3-0.7 0.1-0.9c-0.2-0.1-3-1.6-6.2-3.2c-3.2-1.7-6.1-3.4-6.4-3.9c-0.4-0.5-0.1-0.6 0.5-0.2c0.7 0.4 1.2 0.2 1.2-0.3c0-1.4-1.7-1.4-2.5 0zm-22.1 0.1c-6.5 0.2-9.4 0.7-9.4 1.5c0 3.2 7.7 4.3 13.5 1.9c4.3-1.8 4.6-1.2 0.5 0.9c-4.2 2.2-11.5 2-13.9-0.4c-2-2-3.1-1.8-3.1 0.4c0 3.1 9 4.2 16.5 2c1.1-0.3 0.2 0.3-2 1.4c-5.2 2.5-10 2.6-13.5 0.1c-2.5-1.8-4-1.8-4 0.1c0 1.5 5.8 3.9 9.2 3.9c3.7 0 12.4-3.9 12.2-5.5c-0.1-0.6 0.6-1.5 1.4-2.1c0.9-0.6 1.7-1.9 1.8-2.8c0.2-1.4-0.9-1.6-9.2-1.4zm25.1 7.7c-2.9-2.7-4.5-3.6-4.5-2.6c0 1.9 7.6 8.6 10.8 9.4c3.3 0.8 4-0.5 0.8-1.6c-1.4-0.6-4.6-2.9-7.1-5.2zm-49 0c-0.3 0.6 0.4 1.5 1.5 2.1c2.2 1.2 2.3 1 1.4-1.4c-0.7-1.8-2-2.1-2.9-0.7zm42 0.1c-2.5 0-1.7 1.7 2.8 6.5c5.7 5.9 8.2 5.9 2.8 0c-2.2-2.4-4.1-4.9-4.1-5.5c0-0.5-0.7-1-1.5-1zm-37.1 1c-1.5 0 1.9 2.9 4.9 4.1c1.8 0.7 3.8 1.9 4.5 2.6c2.1 2 7.4 1.5 10.6-1.1l2.8-2.3l-6.9 0.4c-5.7 0.5-7.6 0.2-11.1-1.6c-2.3-1.1-4.4-2.1-4.8-2.1zm28.4 4.2c-3.2-3-3.8-3.3-4.4-1.8c-0.4 0.9-0.5 1.8-0.3 2c1.7 1.2 12.8 7.6 13.4 7.6c0.4 0-0.5-1-2.1-2.2c-1.6-1.2-4.6-3.7-6.6-5.6zm-8.8 2.6c0 1.1 13.9 9.6 14.6 8.9c0.3-0.2-1.5-1.6-3.9-3c-2.4-1.4-5-3.4-5.8-4.4c-1.3-1.7-1.3-1.7 0.6-0.2c3.5 2.9 11.6 7.2 12.2 6.5c0.8-0.8 1-0.6-6-4.5c-5.9-3.4-11.7-5-11.7-3.3z" />
		<path id="Layer" class="s0" d="m82 88.2c0 1.6-0.3 1.9-1.1 1.1c-0.6-0.6-0.8-1.6-0.5-2.2c1.1-1.7 1.6-1.3 1.6 1.1z" />
		<path id="Layer" class="s0" d="m86 98.5c-1.6 0.9-3 1.2-3 0.7c0-0.5 1-1.4 2.3-2c4.5-2.2 5.2-1 0.7 1.3z" />
		<path id="Layer" class="s0" d="m95 99.5c-1.4 0.8-3.8 1.4-5.5 1.4c-2.9-0.1-2.8-0.1 1-1.4c5.4-1.7 7.6-1.8 4.5 0z" />
		<path id="Layer" class="s0" d="m103 128.6c4.3 0.8 5.1 1.4 1.9 1.4c-1.3 0-3.1-0.5-3.9-1c-1.1-0.7-0.5-0.8 2-0.4z" />
		<path id="Layer" class="s0" d="m132.7 136c1.8 0 12.5 2.9 13.2 3.6c1.1 1.1-9.3-0.7-11.9-2.2c-1.4-0.7-2-1.3-1.3-1.4z" />
		<path id="Layer" class="s0" d="m135 139.5c1.4 0.8 4.3 1.5 6.5 1.5c2.2 0.1 3.4 0.4 2.7 0.7c-1 0.4-1 0.8-0.1 1.9c0.9 1.1 0.1 1-3.7-0.3c-2.7-0.8-5.3-2-5.8-2.4c-0.6-0.5-1.5-0.9-2-0.9c-1.2 0 3.4 3.9 4.6 4c2.6 0.1 5.7 2.1 5.2 3.4c-0.5 1.3-1.1 1.3-4.2-0.3c-4.1-2.1-9.2-7.1-7.3-7.1c0.7 0 0.9-0.5 0.6-1c-0.9-1.4 0.5-1.2 3.5 0.5z" />
		<path id="Layer" fill-rule="evenodd" class="s0" d="m228.4 139c12.9 0 14.5 0.2 13.9 1.6c-0.5 1.3-0.7 1.3-1.4 0.2c-0.7-1-0.9-1-0.9 0.2c0 1.3-0.1 1.3-1 0c-0.8-1.3-1-1.2-1 0.2c0 1.3 0.8 1.8 3.3 1.9c2.2 0 2.6 0.3 1.5 0.7c-0.9 0.4-4.1 0.5-7 0.2c-4.1-0.3-4.5-0.5-2-0.8c4.5-0.5 4-1.8-1-2.5c-4.7-0.6-5.7-0.2-4 1.5c2.1 2.1 1.4 2.3-6.4 2.1c-7.9-0.2-10.1-1.1-9.1-3.7c0.5-1.4 2.9-1.6 15.1-1.6zm-8.4 1.4c-4.7-0.3-6.1-0.1-5.8 0.8c0.5 1.3 2.8 1.8 8.7 1.8c3.4 0.1 4.9-0.5 3.9-1.6c-0.3-0.3-3.4-0.7-6.8-1z" />
		<path id="Layer" fill-rule="evenodd" class="s0" d="m92.5 159.8c2 0.5 7.5 4.1 8.6 5.5c0.3 0.5 1.4-0.4 2.3-1.8c1.4-2.1 2.3-2.5 4.3-2c1.3 0.3 2.2 0.2 1.9-0.3c-0.3-0.4 1.4-0.7 3.7-0.5c2.3 0.2 4.3 0.7 4.5 1.2c0.2 0.5 1.2 1.9 2.3 3.2c1.7 1.9 1.7 2.4 0.5 3.8c-0.8 0.9-1.6 2.4-1.7 3.5c-0.2 1-2 2.7-3.9 3.9c-4.2 2.4-8.5 1.8-9.5-1.4c-0.7-1.9-0.7-1.9-3.1 0.6c-2.8 3-4 2.6-5.9-1.9l-1.3-3.1l-1 2.5c-0.6 1.4-1.6 3.1-2.4 3.8c-2.1 1.7-4.3-2.6-3.5-6.7c0.4-1.8 0.2-3.1-0.3-3.1c-0.9 0-1.5 2.8-1.1 5.7c0.1 0.7-0.3 2.2-0.9 3.3c-1.3 2.4-5 2.7-5 0.4c0-0.9-0.5-1.2-1.2-0.8c-0.6 0.4-0.8 0.3-0.4-0.4c1.5-2.4-1.3-2-2.9 0.5l-1.8 2.7l-2.2-2.8l-2.2-2.7l-3.2 2.6c-2.6 2.2-3.4 2.5-4.6 1.5c-0.8-0.7-1.5-1.8-1.5-2.6c0-0.8-1-0.3-2.5 1.2c-2.1 2.1-2.9 2.3-4 1.4c-0.8-0.7-1.5-1.9-1.5-2.7c0-1-1-0.7-3.3 1.1c-4.3 3.3-7 3.3-9.5 0.1c-1.7-2.1-2.1-2.3-3.2-1c-1.8 2.2-5.1 1.9-5.7-0.6c-0.5-1.9-0.8-1.8-3.3 1.3c-2.3 2.7-3 3-4.2 2c-0.9-0.7-2.2-1-3-0.7c-0.8 0.3-2.1-0.1-2.8-1c-1.2-1.4-1.5-1.4-3.2 0.2c-1.5 1.3-2.3 1.5-3.7 0.6c-1.3-0.8-2.2-0.8-2.9-0.1c-0.6 0.6-1.8 0.8-2.8 0.4c-1.4-0.5-1.6-1.5-1-5.1c0.8-6.1 3.2-10.5 5.7-10.5c1.1 0 2.2 0.7 2.5 1.5c0.5 1.2 0.9 1.3 2 0.4c1.1-0.9 2.1-0.9 4.2 0c2.3 1.1 2.9 1 4.4-0.9c1.2-1.5 2.3-2 3.5-1.5c1 0.4 2.9 0.8 4.2 0.9c1.4 0.1 2.6 0.7 2.8 1.3c0.3 0.8 1.1 0.5 2.4-0.8c1.5-1.5 2.4-1.7 3.9-0.9c1.2 0.7 2.1 0.7 2.5 0c0.9-1.5 6.2-1.2 7.9 0.5c0.8 0.8 2.1 1.5 3 1.5c0.8 0 2.2 0.8 3.1 1.7c1.5 1.4 1.8 1.4 2.6 0.2c2.2-3.7 2.7-4.1 4.7-3.5c1.1 0.4 2.2 1.6 2.5 2.6c0.3 1.1 0.1 1.8-0.3 1.5c-1-0.6-2.5 1.4-1.6 2.2c0.3 0.3 2.3-1 4.5-3c2.2-1.9 3.7-3.8 3.3-4.1c-0.3-0.3 0.4-0.6 1.6-0.6c1.1 0 2.4 0.4 2.7 1c0.3 0.5 1.3 1 2.1 1c0.8 0 1.3-0.4 1-0.9c-0.4-0.5 0.2-0.7 1.1-0.5c1 0.3 3.6 0.1 5.8-0.4c2.2-0.6 4.9-0.7 6-0.4zm-84.8 6.9c-2.1 6.3-2.4 7.7-1.3 8.3c0.9 0.5 4.4-8.1 4.5-11.3c0.2-3.3-1.5-1.7-3.2 3zm15 0.3c-2.5 5.6-3.7 6.3-3.7 2.2c0-1.6-0.6-3.7-1.4-4.7c-1.2-1.7-1.5-1.5-4 2.8c-2.7 4.5-3.2 8.2-1.1 8c0.6-0.1 1.4-1.8 1.9-3.7c1.2-4.5 1.9-4.5 3.1-0.4c0.6 1.8 1.7 3.3 2.5 3.3c1.4 0 5.1-5.9 6.5-10.3c1.3-4.3-1.6-2.2-3.8 2.8zm14.3-2.3c-0.6 1.5-1.3 3.5-1.6 4.3c-0.4 1-1 0.3-1.7-2c-0.7-1.9-1.9-3.5-2.7-3.5c-1.4 0-5.1 5.9-6.5 10.2c-1.3 4.4 1.6 2.3 3.8-2.7c1.2-2.7 2.5-5 2.8-5c0.4 0 0.9 1.8 1.3 3.9c0.3 2.2 1 4.2 1.5 4.6c1.1 0.6 6.1-7.4 6.1-9.8c0-2.9-2-2.9-3 0zm5.5-0.4c-5.5 8.4 0.6 16.1 6.9 8.6c2.8-3.3 2.7-7.3-0.2-9.7c-2.4-1.9-5-1.4-6.7 1.1zm21.2-1.5c-0.2-0.8-1.2 0.1-2.3 2.1c-1.1 1.8-2.7 4.3-3.6 5.5c-1.7 2.1-1.7 2.1-1.8-1.2c0-2-0.6-3.5-1.5-3.9c-0.9-0.3-1.8-0.4-2-0.2c-0.5 0.5 2.8 10.9 3.5 10.9c0.3 0 2.2-2.7 4.3-6c2.2-3.3 3.7-6.5 3.4-7.2zm12.2-0.8c-0.6 0-4 2.8-7.5 6.2c-4.5 4.3-6.1 6.5-5.4 7.2c0.7 0.7 1.8 0.2 3.6-1.7c3-3.3 7.5-3.7 7.1-0.8c-0.3 2.7 1.7 3.1 2.1 0.5c0.2-1.2 1.2-2.4 2.3-2.7c2.2-0.6 2.6-2.7 0.4-2.7q-1.5 0-1.5-3c0-1.7-0.5-3-1.1-3zm14.4 0.1c-7.7 0.3-10.3 0.9-10.3 2.5c0 1.1 0.6 1.3 2.2 0.9c1.7-0.6 2-0.4 1.4 1c-1.3 3.6-1.9 9.5-0.8 9.5c0.6 0 1.4-2 1.7-4.3c0.9-5.8 1.6-6.7 5.3-7.3c3.5-0.6 3.8-0.1 1.7 3.6c-1.5 2.7-2.1 9-0.6 7.4c1-1.1 4.1-10.2 4.1-12.1c0-0.9-1.4-1.3-4.7-1.2zm13.2 5c-1.6 2.7-3 4.6-3.1 4.2c-0.1-0.4-0.5-2-0.8-3.6c-0.4-1.5-1.3-2.7-2.1-2.7c-0.8 0-1.5 0.3-1.5 0.6c0 1.5 2.4 9 3.1 9.8c0.7 0.8 8.9-10.7 8.9-12.6c0-2-1.7-0.4-4.5 4.3zm5.9-1.5c-3.9 9.4-2.5 12.1 4.7 8.9c5.1-2.4 5.1-3.9-0.2-3.1c-3.1 0.5-4 0.3-3.7-0.6c0.3-0.7 1.1-1.4 1.9-1.5c9.5-1.2 11.8-2.9 3.4-2.4c-2.6 0.1-4.5-0.2-4.5-0.9c0-0.5 1.4-1 3-1c3.2 0 4-1.4 1.4-2.4c-3.1-1.2-4.5-0.5-6 3z" />
		<path id="Layer" class="s0" d="m47.8 167.4c0.4 3.4-2.5 7.1-4.4 5.5c-1.2-1-0.6-5.1 1.1-7.9c1.1-1.9 3-0.5 3.3 2.4z" />
		<path id="Layer" class="s0" d="m73.8 167.2c-0.3 0.7-1.3 1.5-2.4 1.7c-1.6 0.3-1.7 0.1-0.5-1.3c1.6-1.9 3.4-2.1 2.9-0.4z" />
		<path id="Layer" fill-rule="evenodd" class="s0" d="m227.4 161.5c0.6 1.1 1.2 2.2 1.3 2.4c0.2 0.2 1.2-0.6 2.2-1.8c2.6-3 6-2 6.8 2c0.5 2.8 0.7 2.9 2.9 1.4c1.2-0.8 3.9-2.4 5.9-3.5c3.6-2 3.8-2 5.1-0.3c2.2 2.9 1.7 4-3.2 7.3c-2.5 1.8-4.4 3.3-4.2 3.5c0.2 0.2 2.6-0.4 5.4-1.2c4.2-1.4 5.3-2.2 6.3-4.9c1.7-4.7 3.7-6.1 5.9-4c2.4 2.1 4.2 2 5.8-0.2c1.2-1.6 1.4-1.6 3 0c0.9 0.9 1.9 2.9 2 4.5c0.2 2.1 0.1 2.4-0.6 1.3c-0.8-1.3-1-1.3-1 0.1c0 2.2 0.8 2.8 3 2.2c1.2-0.3 1.7-1 1.3-1.7c-0.4-0.6 0-0.5 0.9 0.2c1.4 1.1 1.7 0.9 2.3-1.7c1.5-7.1 7.7-8.5 12.8-2.9c2.6 2.8 2.7 3.2 1.2 4.7c-0.8 1-1.5 2.5-1.5 3.3c0 0.9-1.2 2.4-2.7 3.4c-3.8 2.5-20.7 3.1-24.9 0.9c-2.7-1.4-3-1.4-4.6 0.5c-2 2.4-2.6 2.5-5 0.3c-1.2-1.1-2.2-1.3-2.6-0.7c-0.4 0.6-3.2 1.2-6.3 1.3c-4.7 0.2-5.9-0.1-7.1-1.8c-1.4-1.9-1.4-1.9-2.6 0c-1 1.6-1.5 1.7-3.1 0.7c-1-0.6-1.7-1.8-1.4-2.5c0.8-2.1-1.4-1.5-4.3 1.2c-3.1 2.9-3.7 3-5.4 1c-0.7-0.9-0.9-2.3-0.4-3.7c0.4-1.3 0.7-2.6 0.6-3.1c-0.1-0.4 0.4-0.7 1.2-0.7c0.7 0 1.9-0.6 2.5-1.4c1-1.2 0.8-1.4-1.4-1.2c-3.3 0.4-3.4 0.5-4.3 5.6c-1.3 7.5-6.6 7.9-6 0.5c0.1-1.7-0.5-4.1-1.4-5.4c-1.3-1.8-1.4-2.9-0.7-4.3c0.5-1 1.1-1.8 1.2-1.9c0.1 0 2.2-0.3 4.7-0.5c2.5-0.3 4.7-0.8 4.9-1c1.1-1.1 4.5 0.2 5.5 2.1zm-9.1 0.8c-4.4 0.7-6.3 1.4-6.3 2.4c0 1 0.6 1.2 2.1 0.8c2-0.7 2.1-0.5 1.5 3.1c-0.4 2.2-0.9 4.7-1.2 5.6c-0.3 1.1 0 1.8 0.9 1.8c1 0 1.7-1.7 2.1-5.4c0.7-5.3 0.8-5.4 4.6-6c2.1-0.3 4.1-1 4.4-1.5c1-1.5-1.6-1.7-8.1-0.8zm16.6-0.3c-0.6 0-4 2.8-7.5 6.2c-4.5 4.3-6.1 6.5-5.4 7.2c0.7 0.7 1.8 0.2 3.6-1.7c1.3-1.5 3.5-2.7 4.8-2.7c2 0 2.2 0.4 1.8 2.6c-0.4 2-0.1 2.5 0.9 2.2c0.8-0.3 1.5-1.4 1.7-2.6c0.2-1.2 0.9-2.2 1.7-2.2c0.7 0 1.6-0.7 1.9-1.6c0.4-1.2 0.2-1.5-0.9-1c-1.2 0.4-1.5-0.2-1.5-2.9c0-1.9-0.5-3.5-1.1-3.5zm45.1 6.5l-1.2 4h-5.3c-5.1 0-5.2-0.1-4.4-2.3c1.2-3.2 1.1-7.5-0.1-6.7c-0.5 0.3-1 1.6-1 2.8c-0.1 1.2-0.7 3.8-1.4 5.8l-1.3 3.6l9.8-0.2c7.2-0.1 10.4-0.6 12.3-1.8c3.7-2.4 3.2-3.1-1.5-2.3c-3.1 0.5-4 0.3-3.7-0.6c0.3-0.7 1.5-1.4 2.9-1.6c7.6-0.9 9.2-2.9 1.9-2.3c-2.4 0.1-4-0.2-4-0.8c0-0.6 1.4-1.1 3-1.1c3.2 0 4-1.4 1.4-2.4c-4-1.5-5.5-0.3-7.4 5.9zm-35.6-2.3c-8.5 5.7-6.6 11.8 2.9 9.6c4.8-1.1 7.7-2.5 7.7-3.9c0-0.5-1.2-0.3-2.8 0.5c-4.1 2.1-9.8 3-10.7 1.6c-0.9-1.5 2.8-5.5 6.6-7c1.6-0.7 2.9-1.9 2.9-2.6c0-2.1-1.3-1.7-6.6 1.8zm12.7 3.6c-2.4 7.6-2.5 8.2-1.2 8.2c0.5 0 1.2-1.1 1.5-2.4c0.5-2.2 1-2.4 4.1-1.9c2.3 0.4 3.5 0.2 3.5-0.6c0-0.6-0.9-1.1-1.9-1.1c-1.1 0-2.3-0.5-2.6-1c-0.3-0.6 0-1 0.8-1c2.1 0 6.7-3.9 4.7-4c-0.9 0-2.5 0.7-3.8 1.5c-2.1 1.6-2.2 1.5-1.6-1.5c1.2-5.7-1.3-3-3.5 3.8z" />
		<path id="Layer" class="s0" d="m232.7 167.5c-0.4 0.8-1.4 1.5-2.3 1.5c-1.6 0-1.6-0.2 0.1-2c2-2.2 3.1-2 2.2 0.5z" />
		<path id="Layer" fill-rule="evenodd" class="s0" d="m139 160.5c3 0.4 6 1.1 6.7 1.7c1.4 1.1 3.6 0.1 2.8-1.3c-0.4-0.5 0.1-0.9 1-0.9c0.9 0 1.3 0.4 1 1c-0.3 0.5 0 0.7 0.8 0.4c0.8-0.3 2 0.2 2.7 1c0.7 1 2.1 1.4 3.5 1c1.3-0.3 2.6 0 3 0.6c0.5 0.8 1.2 0.7 2.5-0.5c2-1.8 5-1 5 1.4c0.1 1.1 0.8 0.7 2.5-1.4c2.2-2.7 2.7-2.9 4.5-1.7c1.4 0.9 2.6 0.9 3.9 0.3c1.4-0.8 2.3-0.6 3.7 1c1.8 2 1.8 2 4.2-0.6c1.9-2.1 2.7-2.4 3.8-1.4c0.8 0.6 2.1 0.8 3.1 0.4q6.7-3 8.4 0.9c0.9 2 0.9 2.9-0.1 4.1c-1 1.2-1 1.9-0.3 2.3c1.1 0.7 1.6 2.6 1.4 4.9c0 0.6-2.4 1.9-5.2 2.8c-5 1.7-5.2 1.7-7.9-0.3c-2.4-1.8-3-1.9-4-0.7c-1.6 1.9-2.5 1.9-4.4 0c-1.4-1.4-1.7-1.4-3.6 0.5c-1.2 1.2-2.6 1.8-3.3 1.3c-2.4-1.5-8.7-1.2-9.6 0.5c-0.7 1.3-1.4 1.4-3.4 0.5c-1.7-0.8-2.8-0.8-3.5-0.1c-0.6 0.6-1.9 0.7-2.9 0.3c-1-0.4-3.7-0.7-6.1-0.6c-3.1 0.2-4.4-0.2-4.8-1.4c-0.6-1.4-0.8-1.5-2.4 0c-1.6 1.5-1.9 1.5-3.4 0c-0.9-0.9-1.6-2.3-1.6-3.1c0-2.5-3.8-1.5-5.2 1.3c-1.8 3.7-4.9 3.7-5.9 0.1c-0.4-1.6-0.3-2.8 0.2-2.8c0.5 0 0.9-0.7 0.9-1.5c0-1.6 2.3-5.7 4.9-8.8c1.3-1.5 2.4-1.7 7.1-1.2zm-1.4 1.5c-2.8 0-3.9 0.6-5.3 2.7c-1 1.6-2 3-2.4 3.3c-1.2 1-2 8-0.9 8c0.5 0 1-0.6 1-1.3c0-2.5 2.5-4.6 6.2-5.2l3.7-0.7l-0.6 3.6c-0.9 5.8 1.2 4.1 3-2.4c1.9-6.9 2.1-8 0.8-8c-0.5 0-1.2 1.2-1.5 2.7c-0.6 2.5-1.1 2.8-4.6 2.8c-4.8 0-4.8-1.8 0-2.5c1.8-0.3 3.5-1.1 3.8-1.8c0.2-0.8-0.8-1.2-3.2-1.2zm34.3 3.3c-1 2.9-1.5 3.3-4.1 2.9c-2.1-0.3-2.6-0.8-1.8-1.7c0.5-0.6 0.7-1.5 0.3-1.8c-1.1-1.2-2.1-0.7-2.6 1.3c-0.3 1.2-1.4 2-2.6 2c-1.3 0-1.9-0.5-1.5-1.4c0.3-0.8 0.1-1.7-0.5-2c-1.3-0.8-3.1 2.5-3.1 5.6c0 1.5-0.3 1.9-0.8 1.1c-0.4-0.7-2.6-1.9-4.7-2.7l-4-1.4l3.3-0.7c1.7-0.4 3.2-1.4 3.2-2.1c0-1.9-1.6-1.8-5.1 0.3c-5.2 3.1-4.9 6.3 0.6 6.3c1.9 0 3.7 0.4 4 1c0.4 0.6-0.8 1-2.9 1c-3.8 0-5.7 1.7-3.5 3.1c1.8 1.2 5.9 0.2 8.2-1.8c1.6-1.5 1.7-1.4 1.7 1.1c0 1.6 0.4 2.5 1 2.1c0.6-0.3 1-1.9 1-3.6c0-2.3 0.4-2.9 2.1-2.9c1.6 0 2 0.5 1.7 2.7c-0.2 1.5 0.2 2.8 1 3c0.7 0.3 1.2-0.4 1.2-1.9c0-3.1 1-4.3 3.7-4.4c1.6 0 2.1 0.5 2 2.2c-0.1 1.3 0.2 2.4 0.7 2.6c0.8 0.3 2.2-3.4 4-10.6c0.9-3.8-1.1-3.2-2.5 0.7zm16.3-2.1c-0.5 0.7-1.8 3.1-2.7 5.3l-1.8 4l-0.7-3c-0.3-1.7-1.1-3.9-1.7-5c-1-1.7-1.3-1.4-3.7 2.3c-2.9 4.6-3.6 9.5-1.2 8.6c0.8-0.3 1.7-2.2 2.1-4.2l0.7-3.7l1.6 3.4c1 1.9 2.2 3.6 2.9 3.8c1 0.4 7.3-10.2 7.3-12.2c0-1-1.8-0.5-2.8 0.7zm5.9 1.4c-6.8 5.7-6.6 10.4 0.3 10.4c5.4 0 8.6-2.1 6.7-4.4c-1.5-1.7-7.1-2.2-7.1-0.6c0 0.5 0.5 1 1 1c0.6 0 1 0.4 1 1c0 1.6-3 1.1-3.7-0.6c-0.3-1 0.4-2.6 2-4.2c2.2-2.1 2.8-2.3 4.1-1.3c1.3 1.1 1.7 1.1 2.2-0.2c0.3-0.9 0.3-2.1-0.1-2.7c-1-1.7-3.2-1.2-6.4 1.6zm-27.1 8.4c-0.5 0-1 0.4-1 1c0 0.5 0.5 1 1 1c0.6 0 1-0.5 1-1c0-0.6-0.4-1-1-1z" />
	</g>
</svg>